#N canvas 0 0 1440 900 12;
#X msg 390 40 start;
#X msg 440 40 stop;
#X obj 250 70 readsf~ 2;
#X obj 230 70 bng 15 250 50 0 empty empty empty 17 7 0 10 #fcfcfc #000000
#000000;
#X obj 250 10 bng 15 250 50 0 empty empty empty 17 7 0 10 #fcfcfc #000000
#000000;
#X obj 440 10 bng 15 250 50 0 empty empty empty 17 7 0 10 #fcfcfc #000000
#000000;
#X obj 250 100 *~;
#X obj 710 720 bng 15 250 50 0 empty empty empty 17 7 0 10 #fcfcfc
#000000 #000000;
#X obj 740 720 bng 15 250 50 0 empty empty empty 17 7 0 10 #fcfcfc
#000000 #000000;
#X obj 740 750 s stop;
#X obj 680 750 s start;
#X obj 280 10 r start;
#X obj 380 10 r stop;
#N canvas 8 53 1097 528 interpolator 0;
#X floatatom 20 190 5 0 0 0 - - -, f 5;
#X obj 100 110 expr if($f1 < 0.25 \, $f1 / 0.25 \, 1 - ($f1 - 0.25)
/ 0.25);
#X obj 100 140 max 0;
#X floatatom 100 170 5 0 0 0 - - -, f 5;
#X obj 100 250 max 0;
#X floatatom 100 280 5 0 0 0 - - -, f 5;
#X obj 100 210 expr if($f1 < 0.5 \, ($f1 - 0.25) / 0.25 \, 1 - ($f1
- 0.5) / 0.25);
#X obj 100 360 max 0;
#X floatatom 100 390 5 0 0 0 - - -, f 5;
#X floatatom 100 70 5 0 0 0 - - -, f 5;
#X floatatom 100 460 5 0 0 0 - - -, f 5;
#X obj 100 40 expr max(1 - $f1 / 0.25 \, 0);
#X obj 100 320 expr if($f1 < 0.75 \, ($f1 - 0.5) / 0.25 \, 1 - ($f1
- 0.75) / 0.25);
#X obj 100 430 expr max(($f1 - 0.75) / 0.25 \, 0);
#X obj 300 70 s x1;
#X obj 300 170 s x2;
#X obj 300 280 s x3;
#X obj 300 390 s x4;
#X obj 300 460 s x5;
#X floatatom 550 190 5 0 0 0 - - -, f 5;
#X obj 630 110 expr if($f1 < 0.25 \, $f1 / 0.25 \, 1 - ($f1 - 0.25)
/ 0.25);
#X obj 630 140 max 0;
#X floatatom 630 170 5 0 0 0 - - -, f 5;
#X obj 630 250 max 0;
#X floatatom 630 280 5 0 0 0 - - -, f 5;
#X obj 630 210 expr if($f1 < 0.5 \, ($f1 - 0.25) / 0.25 \, 1 - ($f1
- 0.5) / 0.25);
#X obj 630 360 max 0;
#X floatatom 630 390 5 0 0 0 - - -, f 5;
#X floatatom 630 70 5 0 0 0 - - -, f 5;
#X floatatom 630 460 5 0 0 0 - - -, f 5;
#X obj 630 40 expr max(1 - $f1 / 0.25 \, 0);
#X obj 630 320 expr if($f1 < 0.75 \, ($f1 - 0.5) / 0.25 \, 1 - ($f1
- 0.75) / 0.25);
#X obj 630 430 expr max(($f1 - 0.75) / 0.25 \, 0);
#X obj 830 70 s y1;
#X obj 830 170 s y2;
#X obj 830 280 s y3;
#X obj 830 390 s y4;
#X obj 830 460 s y5;
#X obj 20 10 r x;
#X obj 550 10 r y;
#X connect 0 0 1 0;
#X connect 0 0 6 0;
#X connect 0 0 11 0;
#X connect 0 0 12 0;
#X connect 0 0 13 0;
#X connect 1 0 2 0;
#X connect 2 0 3 0;
#X connect 3 0 15 0;
#X connect 4 0 5 0;
#X connect 5 0 16 0;
#X connect 6 0 4 0;
#X connect 7 0 8 0;
#X connect 8 0 17 0;
#X connect 9 0 14 0;
#X connect 10 0 18 0;
#X connect 11 0 9 0;
#X connect 12 0 7 0;
#X connect 13 0 10 0;
#X connect 19 0 20 0;
#X connect 19 0 25 0;
#X connect 19 0 30 0;
#X connect 19 0 31 0;
#X connect 19 0 32 0;
#X connect 20 0 21 0;
#X connect 21 0 22 0;
#X connect 22 0 34 0;
#X connect 23 0 24 0;
#X connect 24 0 35 0;
#X connect 25 0 23 0;
#X connect 26 0 27 0;
#X connect 27 0 36 0;
#X connect 28 0 33 0;
#X connect 29 0 37 0;
#X connect 30 0 28 0;
#X connect 31 0 26 0;
#X connect 32 0 29 0;
#X connect 38 0 0 0;
#X connect 39 0 19 0;
#X restore 680 780 pd interpolator;
#X floatatom 410 100 5 0 0 0 - - -, f 5;
#X obj 410 70 r x1;
#X msg 630 40 start;
#X msg 680 40 stop;
#X obj 490 70 readsf~ 2;
#X obj 470 70 bng 15 250 50 0 empty empty empty 17 7 0 10 #fcfcfc #000000
#000000;
#X obj 490 10 bng 15 250 50 0 empty empty empty 17 7 0 10 #fcfcfc #000000
#000000;
#X obj 680 10 bng 15 250 50 0 empty empty empty 17 7 0 10 #fcfcfc #000000
#000000;
#X obj 490 100 *~;
#X obj 520 10 r start;
#X obj 620 10 r stop;
#X floatatom 650 100 5 0 0 0 - - -, f 5;
#X msg 870 40 start;
#X msg 920 40 stop;
#X obj 730 70 readsf~ 2;
#X obj 710 70 bng 15 250 50 0 empty empty empty 17 7 0 10 #fcfcfc #000000
#000000;
#X obj 730 10 bng 15 250 50 0 empty empty empty 17 7 0 10 #fcfcfc #000000
#000000;
#X obj 920 10 bng 15 250 50 0 empty empty empty 17 7 0 10 #fcfcfc #000000
#000000;
#X obj 730 100 *~;
#X obj 760 10 r start;
#X obj 860 10 r stop;
#X floatatom 890 100 5 0 0 0 - - -, f 5;
#X msg 1110 40 start;
#X msg 1160 40 stop;
#X obj 970 70 readsf~ 2;
#X obj 950 70 bng 15 250 50 0 empty empty empty 17 7 0 10 #fcfcfc #000000
#000000;
#X obj 970 10 bng 15 250 50 0 empty empty empty 17 7 0 10 #fcfcfc #000000
#000000;
#X obj 1160 10 bng 15 250 50 0 empty empty empty 17 7 0 10 #fcfcfc
#000000 #000000;
#X obj 970 100 *~;
#X obj 1000 10 r start;
#X obj 1100 10 r stop;
#X floatatom 1130 100 5 0 0 0 - - -, f 5;
#X msg 1350 40 start;
#X msg 1400 40 stop;
#X obj 1210 70 readsf~ 2;
#X obj 1190 70 bng 15 250 50 0 empty empty empty 17 7 0 10 #fcfcfc
#000000 #000000;
#X obj 1210 10 bng 15 250 50 0 empty empty empty 17 7 0 10 #fcfcfc
#000000 #000000;
#X obj 1400 10 bng 15 250 50 0 empty empty empty 17 7 0 10 #fcfcfc
#000000 #000000;
#X obj 1210 100 *~;
#X obj 1240 10 r start;
#X obj 1340 10 r stop;
#X floatatom 1370 100 5 0 0 0 - - -, f 5;
#X msg 170 160 start;
#X msg 220 160 stop;
#X obj 30 190 readsf~ 2;
#X obj 10 190 bng 15 250 50 0 empty empty empty 17 7 0 10 #fcfcfc #000000
#000000;
#X obj 30 130 bng 15 250 50 0 empty empty empty 17 7 0 10 #fcfcfc #000000
#000000;
#X obj 220 130 bng 15 250 50 0 empty empty empty 17 7 0 10 #fcfcfc
#000000 #000000;
#X obj 30 220 *~;
#X obj 60 130 r start;
#X obj 160 130 r stop;
#X floatatom 190 220 5 0 0 0 - - -, f 5;
#X msg 170 310 start;
#X msg 220 310 stop;
#X obj 30 340 readsf~ 2;
#X obj 10 340 bng 15 250 50 0 empty empty empty 17 7 0 10 #fcfcfc #000000
#000000;
#X obj 30 280 bng 15 250 50 0 empty empty empty 17 7 0 10 #fcfcfc #000000
#000000;
#X obj 220 280 bng 15 250 50 0 empty empty empty 17 7 0 10 #fcfcfc
#000000 #000000;
#X obj 30 370 *~;
#X obj 60 280 r start;
#X obj 160 280 r stop;
#X floatatom 190 370 5 0 0 0 - - -, f 5;
#X msg 170 760 start;
#X msg 220 760 stop;
#X obj 30 790 readsf~ 2;
#X obj 10 790 bng 15 250 50 0 empty empty empty 17 7 0 10 #fcfcfc #000000
#000000;
#X obj 30 730 bng 15 250 50 0 empty empty empty 17 7 0 10 #fcfcfc #000000
#000000;
#X obj 220 730 bng 15 250 50 0 empty empty empty 17 7 0 10 #fcfcfc
#000000 #000000;
#X obj 30 820 *~;
#X obj 60 730 r start;
#X obj 160 730 r stop;
#X floatatom 190 820 5 0 0 0 - - -, f 5;
#X msg 170 610 start;
#X msg 220 610 stop;
#X obj 30 640 readsf~ 2;
#X obj 10 640 bng 15 250 50 0 empty empty empty 17 7 0 10 #fcfcfc #000000
#000000;
#X obj 30 580 bng 15 250 50 0 empty empty empty 17 7 0 10 #fcfcfc #000000
#000000;
#X obj 220 580 bng 15 250 50 0 empty empty empty 17 7 0 10 #fcfcfc
#000000 #000000;
#X obj 30 670 *~;
#X obj 60 580 r start;
#X obj 160 580 r stop;
#X floatatom 190 670 5 0 0 0 - - -, f 5;
#X msg 170 460 start;
#X msg 220 460 stop;
#X obj 30 490 readsf~ 2;
#X obj 10 490 bng 15 250 50 0 empty empty empty 17 7 0 10 #fcfcfc #000000
#000000;
#X obj 30 430 bng 15 250 50 0 empty empty empty 17 7 0 10 #fcfcfc #000000
#000000;
#X obj 220 430 bng 15 250 50 0 empty empty empty 17 7 0 10 #fcfcfc
#000000 #000000;
#X obj 30 520 *~;
#X obj 60 430 r start;
#X obj 160 430 r stop;
#X floatatom 190 520 5 0 0 0 - - -, f 5;
#X msg 30 160 open s/Perc1.wav 0;
#X msg 30 310 open s/Perc2.wav 0;
#X msg 30 460 open s/Perc3.wav 0;
#X msg 30 610 open s/Perc4.wav 0;
#X msg 30 760 open s/Perc5.wav 0;
#X msg 250 40 open s/Perc1.wav 0;
#X msg 730 40 open s/Perc3.wav 0;
#X msg 490 40 open s/Perc2.wav 0;
#X msg 970 40 open s/Perc4.wav 0;
#X msg 1210 40 open s/Perc5.wav 0;
#X obj 650 70 r x2;
#X obj 890 70 r x3;
#X obj 1130 70 r x4;
#X obj 1370 70 r x5;
#X obj 190 190 r y1;
#X obj 190 340 r y2;
#X obj 190 490 r y3;
#X obj 190 640 r y4;
#X obj 190 790 r y5;
#X obj 900 240 dbtorms;
#X obj 750 350 dac~;
#X obj 600 140 +~;
#X obj 1050 140 +~;
#X obj 720 150 +~;
#X obj 830 180 +~;
#X floatatom 900 270 5 0 0 0 - - -, f 5;
#X floatatom 900 360 5 0 0 0 - - -, f 5;
#X obj 270 240 +~;
#X obj 350 360 +~;
#X obj 290 360 +~;
#X obj 240 690 +~;
#X obj 900 210 env~ 512;
#X obj 900 300 *;
#X obj 750 280 bp~;
#X obj 750 310 *~ 1;
#X obj 650 200 vsl 15 128 0 10 0 0 empty empty empty 0 -9 0 10 #fcfcfc
#000000 #000000 878 1;
#X floatatom 650 350 5 0 0 0 - - -, f 5;
#X obj 900 330 * 250000;
#X obj 410 450 dbtorms;
#X obj 410 690 dac~;
#X floatatom 410 480 5 0 0 0 - - -, f 5;
#X floatatom 410 570 5 0 0 0 - - -, f 5;
#X obj 410 420 env~ 512;
#X obj 410 510 *;
#X obj 410 620 bp~;
#X obj 410 650 *~ 1;
#X obj 500 420 vsl 15 128 0 10 0 0 empty empty empty 0 -9 0 10 #fcfcfc
#000000 #000000 764 1;
#X floatatom 500 570 5 0 0 0 - - -, f 5;
#X obj 410 540 * 250000;
#X obj 1240 420 cursor;
#X obj 1240 450 route motion;
#X obj 1240 480 route x y;
#X floatatom 1240 510 5 0 0 0 - - -, f 5;
#X floatatom 1290 510 5 0 0 0 - - -, f 5;
#X obj 1240 200 key;
#X floatatom 1240 230 5 0 0 0 - - -, f 5;
#X obj 1240 287 bng 15 250 50 0 empty empty empty 17 7 0 10 #fcfcfc
#000000 #000000;
#X obj 1280 287 bng 15 250 50 0 empty empty empty 17 7 0 10 #fcfcfc
#000000 #000000;
#X obj 1240 260 select 49 50;
#X obj 1240 390 tgl 15 0 empty empty empty 17 7 0 10 #fcfcfc #000000
#000000 0 1;
#X msg 1280 360 0;
#X msg 1240 360 1;
#X obj 1130 420 cursor;
#X obj 1130 450 route motion;
#X obj 1130 480 route x y;
#X floatatom 1130 510 5 0 0 0 - - -, f 5;
#X floatatom 1180 510 5 0 0 0 - - -, f 5;
#X obj 1130 390 tgl 15 0 empty empty empty 17 7 0 10 #fcfcfc #000000
#000000 1 1;
#X msg 1130 360 0;
#X msg 1170 360 1;
#X floatatom 1130 570 5 0 0 0 - - -, f 5;
#X floatatom 1180 570 5 0 0 0 - - -, f 5;
#X obj 1180 540 / 900;
#X obj 1130 540 / 1440;
#X obj 1240 600 s x;
#X obj 1290 600 s y;
#X floatatom 1240 570 5 0 0 0 - - -, f 5;
#X floatatom 1290 570 5 0 0 0 - - -, f 5;
#X obj 1290 540 / 900;
#X obj 1240 540 / 1440;
#X text 1330 260 < ACII key #;
#X text 1240 620 Send x and y to control interpolation between smaples
, f 14;
#X text 1130 710 Control the band pass filters, f 14;
#X obj 1130 690 s xBP;
#X obj 1180 690 s yBP;
#X obj 650 170 r xBP;
#X obj 500 370 r yBP;
#X obj 1130 660 * 10;
#X obj 1180 660 * 10;
#X obj 760 610 expr $f1 * $f1 * $f1 * $f1 * $f1;
#X obj 1000 610 expr $f1 * $f1 * $f1 * $f1 * $f1;
#X connect 0 0 2 0;
#X connect 1 0 2 0;
#X connect 2 0 6 0;
#X connect 2 2 3 0;
#X connect 3 0 4 0;
#X connect 4 0 111 0;
#X connect 4 0 0 0;
#X connect 5 0 1 0;
#X connect 6 0 127 0;
#X connect 7 0 10 0;
#X connect 8 0 9 0;
#X connect 11 0 4 0;
#X connect 12 0 5 0;
#X connect 14 0 6 1;
#X connect 15 0 14 0;
#X connect 16 0 18 0;
#X connect 17 0 18 0;
#X connect 18 0 22 0;
#X connect 18 2 19 0;
#X connect 19 0 20 0;
#X connect 20 0 113 0;
#X connect 20 0 16 0;
#X connect 21 0 17 0;
#X connect 22 0 127 1;
#X connect 23 0 20 0;
#X connect 24 0 21 0;
#X connect 25 0 22 1;
#X connect 26 0 28 0;
#X connect 27 0 28 0;
#X connect 28 0 32 0;
#X connect 28 2 29 0;
#X connect 29 0 30 0;
#X connect 30 0 112 0;
#X connect 30 0 26 0;
#X connect 31 0 27 0;
#X connect 32 0 129 1;
#X connect 33 0 30 0;
#X connect 34 0 31 0;
#X connect 35 0 32 1;
#X connect 36 0 38 0;
#X connect 37 0 38 0;
#X connect 38 0 42 0;
#X connect 38 2 39 0;
#X connect 39 0 40 0;
#X connect 40 0 114 0;
#X connect 40 0 36 0;
#X connect 41 0 37 0;
#X connect 42 0 128 0;
#X connect 43 0 40 0;
#X connect 44 0 41 0;
#X connect 45 0 42 1;
#X connect 46 0 48 0;
#X connect 47 0 48 0;
#X connect 48 0 52 0;
#X connect 48 2 49 0;
#X connect 49 0 50 0;
#X connect 50 0 115 0;
#X connect 50 0 46 0;
#X connect 51 0 47 0;
#X connect 52 0 128 1;
#X connect 53 0 50 0;
#X connect 54 0 51 0;
#X connect 55 0 52 1;
#X connect 56 0 58 0;
#X connect 57 0 58 0;
#X connect 58 0 62 0;
#X connect 58 2 59 0;
#X connect 59 0 60 0;
#X connect 60 0 106 0;
#X connect 60 0 56 0;
#X connect 61 0 57 0;
#X connect 62 0 133 0;
#X connect 63 0 60 0;
#X connect 64 0 61 0;
#X connect 65 0 62 1;
#X connect 66 0 68 0;
#X connect 67 0 68 0;
#X connect 68 0 72 0;
#X connect 68 2 69 0;
#X connect 69 0 70 0;
#X connect 70 0 107 0;
#X connect 70 0 66 0;
#X connect 71 0 67 0;
#X connect 72 0 133 1;
#X connect 73 0 70 0;
#X connect 74 0 71 0;
#X connect 75 0 72 1;
#X connect 76 0 78 0;
#X connect 77 0 78 0;
#X connect 78 0 82 0;
#X connect 78 2 79 0;
#X connect 79 0 80 0;
#X connect 80 0 110 0;
#X connect 80 0 76 0;
#X connect 81 0 77 0;
#X connect 82 0 136 1;
#X connect 83 0 80 0;
#X connect 84 0 81 0;
#X connect 85 0 82 1;
#X connect 86 0 88 0;
#X connect 87 0 88 0;
#X connect 88 0 92 0;
#X connect 88 2 89 0;
#X connect 89 0 90 0;
#X connect 90 0 109 0;
#X connect 90 0 86 0;
#X connect 91 0 87 0;
#X connect 92 0 136 0;
#X connect 93 0 90 0;
#X connect 94 0 91 0;
#X connect 95 0 92 1;
#X connect 96 0 98 0;
#X connect 97 0 98 0;
#X connect 98 0 102 0;
#X connect 98 2 99 0;
#X connect 99 0 100 0;
#X connect 100 0 108 0;
#X connect 100 0 96 0;
#X connect 101 0 97 0;
#X connect 102 0 135 1;
#X connect 103 0 100 0;
#X connect 104 0 101 0;
#X connect 105 0 102 1;
#X connect 106 0 58 0;
#X connect 107 0 68 0;
#X connect 108 0 98 0;
#X connect 109 0 88 0;
#X connect 110 0 78 0;
#X connect 111 0 2 0;
#X connect 112 0 28 0;
#X connect 113 0 18 0;
#X connect 114 0 38 0;
#X connect 115 0 48 0;
#X connect 116 0 25 0;
#X connect 117 0 35 0;
#X connect 118 0 45 0;
#X connect 119 0 55 0;
#X connect 120 0 65 0;
#X connect 121 0 75 0;
#X connect 122 0 105 0;
#X connect 123 0 95 0;
#X connect 124 0 85 0;
#X connect 125 0 131 0;
#X connect 127 0 129 0;
#X connect 128 0 130 1;
#X connect 129 0 130 0;
#X connect 130 0 137 0;
#X connect 130 0 139 0;
#X connect 131 0 138 0;
#X connect 131 0 138 1;
#X connect 132 0 139 1;
#X connect 133 0 135 0;
#X connect 134 0 148 0;
#X connect 134 0 150 0;
#X connect 135 0 134 0;
#X connect 136 0 134 1;
#X connect 137 0 125 0;
#X connect 138 0 143 0;
#X connect 139 0 140 0;
#X connect 140 0 126 1;
#X connect 141 0 139 2;
#X connect 141 0 142 0;
#X connect 143 0 132 0;
#X connect 144 0 146 0;
#X connect 146 0 149 0;
#X connect 146 0 149 1;
#X connect 147 0 150 1;
#X connect 148 0 144 0;
#X connect 149 0 154 0;
#X connect 150 0 151 0;
#X connect 151 0 145 0;
#X connect 152 0 150 2;
#X connect 152 0 153 0;
#X connect 154 0 147 0;
#X connect 155 0 156 0;
#X connect 156 0 157 0;
#X connect 157 0 158 0;
#X connect 157 1 159 0;
#X connect 158 0 185 0;
#X connect 159 0 184 0;
#X connect 160 0 161 0;
#X connect 161 0 164 0;
#X connect 162 0 167 0;
#X connect 162 0 174 0;
#X connect 163 0 166 0;
#X connect 163 0 175 0;
#X connect 164 0 162 0;
#X connect 164 1 163 0;
#X connect 165 0 155 0;
#X connect 166 0 165 0;
#X connect 167 0 165 0;
#X connect 168 0 169 0;
#X connect 169 0 170 0;
#X connect 170 0 171 0;
#X connect 170 1 172 0;
#X connect 171 0 179 0;
#X connect 172 0 178 0;
#X connect 173 0 168 0;
#X connect 174 0 173 0;
#X connect 175 0 173 0;
#X connect 176 0 195 0;
#X connect 177 0 196 0;
#X connect 178 0 177 0;
#X connect 179 0 176 0;
#X connect 182 0 180 0;
#X connect 183 0 181 0;
#X connect 184 0 183 0;
#X connect 185 0 182 0;
#X connect 191 0 141 0;
#X connect 192 0 152 0;
#X connect 193 0 189 0;
#X connect 194 0 190 0;
#X connect 195 0 193 0;
#X connect 196 0 194 0;
