#N canvas 157 22 624 359 12;
#X obj 99 86 vsl 67 200 0 5000 0 0 minFreq minFreq minFreq 0 -9 0 10
-262130 -1 -1 796 1;
#X obj 177 86 vsl 67 200 0 5000 0 0 maxFreq maxFreq maxFreq 0 -9 0
10 -262130 -1 -1 5900 1;
#X obj 255 86 vsl 67 200 0 100 0 0 minVol minVol minVol 0 -9 0 10 -261234
-1 -1 800 1;
#X obj 333 86 vsl 67 200 0 1000 0 0 glide glide glide 0 -9 0 10 -204786
-1 -1 5100 1;
#X obj 412 84 vradio 69 1 0 3 route empty route 0 -8 0 10 -203904 -1
-1 0;
#X obj 0 0 cnv 15 1600 60 empty empty Utility_for_controlling_a_synthesizer_with_your_throat
20 12 0 14 -233017 -66577 0;
#N canvas 251 232 595 357 init 0;
#X obj 185 174 s minFreq;
#X obj 257 174 s maxFreq;
#X obj 330 174 s minVol;
#X obj 396 174 s glide;
#X obj 185 133 200;
#X obj 257 133 1500;
#X obj 330 133 20;
#X obj 396 133 250;
#X obj 134 11 loadbang;
#X obj 134 174 s gain;
#X obj 134 133 1;
#X msg 35 160 \; pd dsp 1;
#X connect 4 0 0 0;
#X connect 5 0 1 0;
#X connect 6 0 2 0;
#X connect 7 0 3 0;
#X connect 8 0 4 0;
#X connect 8 0 5 0;
#X connect 8 0 6 0;
#X connect 8 0 7 0;
#X connect 8 0 10 0;
#X connect 8 0 11 0;
#X connect 10 0 9 0;
#X restore 18 301 pd init;
#X obj 18 86 vsl 67 200 0 1 0 0 gain gain gain 0 -9 0 10 -204800 -1
-1 19900 1;
#X text 495 250 filtered noise;
#X text 495 178 sine oscillator;
#X text 494 106 midi notes out;
#N canvas 670 122 610 433 contents 0;
#N canvas 0 22 450 596 sigmundEx 0;
#X obj 89 143 sigmund~;
#X obj 89 229 mtof;
#X obj 89 205 spigot;
#X floatatom 187 162 5 0 0 0 - - -;
#X obj 187 185 / 100;
#X obj 89 253 moses 200;
#X obj 89 277 moses 1000;
#X obj 89 304 line 250;
#X obj 197 285 r glide;
#X obj 197 234 r minFreq;
#X obj 197 258 r maxFreq;
#X obj 167 137 r minVol;
#X obj 89 94 inlet~;
#X obj 186 475 outlet;
#X obj 89 475 outlet;
#X floatatom 89 173 5 0 0 0 - - -;
#X obj 186 208 spigot;
#X obj 142 173 > 20;
#X connect 0 0 15 0;
#X connect 0 1 3 0;
#X connect 0 1 17 0;
#X connect 1 0 5 0;
#X connect 2 0 1 0;
#X connect 3 0 4 0;
#X connect 4 0 16 0;
#X connect 5 1 6 0;
#X connect 6 0 7 0;
#X connect 7 0 14 0;
#X connect 8 0 7 2;
#X connect 9 0 5 1;
#X connect 10 0 6 1;
#X connect 11 0 17 1;
#X connect 12 0 0 0;
#X connect 15 0 2 0;
#X connect 16 0 13 0;
#X connect 17 0 2 1;
#X connect 17 0 16 1;
#X restore 102 53 pd sigmundEx;
#X f 13;
#X obj 102 20 adc~;
#X obj 35 75 r route;
#X obj 17 143 pack f f f, f 25;
#X obj 17 181 route 0 1 2;
#X obj 17 51 metro 1;
#X obj 17 102 f;
#X obj 17 19 loadbang;
#X obj 122 88 print -n;
#N canvas 719 140 450 300 sinOsc 0;
#X obj 16 19 inlet;
#X obj 16 50 unpack, f 9;
#X obj 16 199 dac~;
#X obj 34 131 r gain;
#X obj 16 158 *~;
#X obj 16 78 osc~;
#X obj 16 106 *~, f 9;
#X connect 0 0 1 0;
#X connect 1 0 5 0;
#X connect 1 1 6 1;
#X connect 3 0 4 1;
#X connect 4 0 2 0;
#X connect 4 0 2 1;
#X connect 5 0 6 0;
#X connect 6 0 4 0;
#X restore 41 241 pd sinOsc;
#N canvas 0 22 450 441 pinkGen 0;
#X obj 16 19 inlet;
#X obj 16 103 unpack, f 9;
#X obj 16 343 dac~;
#X obj 34 275 r gain;
#X obj 16 302 *~;
#X obj 16 245 *~, f 9;
#X obj 16 158 pink~;
#X obj 16 129 * 2;
#X obj 16 217 reson~ 100 200 150;
#X obj 57 158 * 100;
#X connect 0 0 1 0;
#X connect 1 0 7 0;
#X connect 1 1 9 0;
#X connect 1 1 5 1;
#X connect 3 0 4 1;
#X connect 4 0 2 0;
#X connect 4 0 2 1;
#X connect 5 0 4 0;
#X connect 6 0 8 0;
#X connect 7 0 8 2;
#X connect 8 0 5 0;
#X connect 9 0 8 1;
#X restore 66 215 pd pinkGen;
#N canvas 0 22 450 300 midiOut 0;
#X obj 16 19 inlet;
#X obj 16 50 unpack, f 9;
#X obj 16 83 ftom;
#X obj 16 114 + 1;
#X obj 16 183 noteout;
#X obj 74 115 * 100;
#X obj 16 149 makenote 0 100 10;
#X connect 0 0 1 0;
#X connect 1 0 2 0;
#X connect 1 1 5 0;
#X connect 2 0 3 0;
#X connect 3 0 6 0;
#X connect 5 0 6 1;
#X connect 6 0 4 0;
#X connect 6 1 4 1;
#X restore 17 268 pd midiOut;
#X connect 0 0 3 1;
#X connect 0 0 8 0;
#X connect 0 1 3 2;
#X connect 1 0 0 0;
#X connect 2 0 6 1;
#X connect 3 0 4 0;
#X connect 4 0 11 0;
#X connect 4 1 9 0;
#X connect 4 2 10 0;
#X connect 5 0 6 0;
#X connect 6 0 3 0;
#X connect 7 0 5 0;
#X restore 99 301 pd contents;
